if (_typeface_js && _typeface_js.loadFace) _typeface_js.loadFace({"glyphs":{"0":{"ha":905,"x_min":26,"x_max":1128,"o":"m 1098 781 l 1128 721 l 766 0 l 91 0 l 26 94 l 340 721 l 311 781 l 595 781 l 1098 781 l 1098 781 l 1098 781 m 490 107 l 774 674 l 648 674 l 364 107 l 490 107 l 490 107 z "},"1":{"ha":469,"x_min":-5,"x_max":719,"o":"m -5 0 l 358 721 l 328 781 l 719 781 l 328 0 l -5 0 l -5 0 z "},"2":{"ha":918,"x_min":-9,"x_max":1139,"o":"m 191 397 l 672 444 l 784 674 l 658 674 l 602 565 l 273 565 l 351 720 l 319 781 l 1109 781 l 1139 721 l 950 345 l 473 303 l 374 106 l 500 106 l 578 262 l 909 262 l 779 0 l -9 0 l 191 397 l 191 397 z "},"3":{"ha":927,"x_min":1,"x_max":1150,"o":"m 1 0 l 133 263 l 463 263 l 385 106 l 511 106 l 631 346 l 176 346 l 230 453 l 686 453 l 795 674 l 669 674 l 613 565 l 283 565 l 362 720 l 330 781 l 1120 781 l 1150 721 l 1015 451 l 921 405 l 962 345 l 789 0 l 1 0 z "},"4":{"ha":905,"x_min":172,"x_max":1149,"o":"m 819 781 l 1149 781 l 981 446 l 1060 446 l 1008 343 l 930 343 l 759 0 l 429 0 l 600 342 l 214 342 l 172 399 l 332 721 l 302 781 l 692 781 l 527 450 l 654 450 l 819 781 l 819 781 z "},"5":{"ha":901,"x_min":14,"x_max":1122,"o":"m 1093 781 l 1122 721 l 1046 565 l 716 565 l 768 674 l 642 674 l 532 453 l 923 453 l 959 394 l 761 0 l 58 0 l 14 75 l 109 266 l 438 266 l 359 108 l 486 108 l 605 349 l 218 348 l 177 402 l 336 721 l 305 781 l 1093 781 l 1093 781 z "},"6":{"ha":900,"x_min":14,"x_max":1122,"o":"m 1093 781 l 1122 720 l 1046 564 l 716 564 l 768 673 l 642 673 l 528 445 l 916 445 l 952 385 l 762 -1 l 58 0 l 14 75 l 336 720 l 305 781 l 1093 781 l 1093 781 l 1093 781 m 477 342 l 359 107 l 486 107 l 602 342 l 477 342 l 477 342 z "},"7":{"ha":840,"x_min":283,"x_max":1061,"o":"m 367 0 l 706 673 l 288 673 l 314 723 l 283 781 l 700 781 l 871 781 l 1031 781 l 1061 722 l 1036 673 l 700 0 l 367 0 l 367 0 z "},"8":{"ha":907,"x_min":8,"x_max":1128,"o":"m 364 107 l 489 107 l 606 336 l 599 336 l 599 336 l 476 335 l 364 107 l 364 107 l 364 107 m 530 444 l 659 444 l 773 674 l 648 674 l 530 444 l 530 444 l 530 444 m 340 722 l 309 781 l 1099 781 l 1128 722 l 989 441 l 895 395 l 935 336 l 768 1 l 766 1 l 766 0 l 37 0 l 8 60 l 146 338 l 241 384 l 200 444 l 340 722 l 340 722 z "},"9":{"ha":902,"x_min":7,"x_max":1115,"o":"m 7 60 l 106 264 l 437 264 l 360 106 l 486 106 l 604 341 l 149 341 q 243 533 196 438 q 338 724 290 627 l 308 781 l 1071 781 l 1115 705 l 763 0 l 37 0 l 7 60 m 654 443 l 770 673 l 644 673 l 528 443 l 654 443 z "}," ":{"ha":468,"x_min":0,"x_max":0,"o":""},"!":{"ha":472,"x_min":-2,"x_max":723,"o":"m -2 0 l 56 114 l 389 114 l 330 0 l -2 0 l -2 0 m 723 783 l 414 166 l 81 166 l 360 723 l 330 783 l 723 783 z "},"\"":{"ha":853,"x_min":332,"x_max":801,"o":"m 776 781 q 792 773 783 781 q 800 757 801 765 l 745 511 q 741 495 743 503 q 730 488 739 488 l 649 488 q 634 494 641 488 q 625 511 627 501 l 585 757 q 588 773 583 766 q 599 781 592 781 l 776 781 m 525 781 q 541 773 532 781 q 548 758 550 766 l 494 511 q 490 495 492 503 q 479 488 487 488 l 397 488 q 382 495 389 488 q 374 511 376 502 l 334 758 q 336 774 332 767 q 347 781 340 781 l 525 781 z "},"#":{"ha":1094,"x_min":-1,"x_max":1254,"o":"m 29 0 l 106 153 l -1 153 l 62 277 l 168 277 l 267 475 l 161 475 l 223 600 l 330 600 l 420 781 l 534 781 l 752 781 l 662 600 l 831 600 l 922 781 l 1036 781 l 1254 781 l 1163 600 l 1254 600 l 1192 475 l 1101 475 l 1002 277 l 1093 277 l 1030 153 l 940 153 l 863 0 l 530 0 l 608 153 l 438 153 l 361 0 l 29 0 l 29 0 l 29 0 m 670 277 l 769 475 l 600 475 l 500 277 l 670 277 l 670 277 z "},"$":{"ha":957,"x_min":56,"x_max":1192,"o":"m 608 0 l 568 -79 l 237 -79 l 276 0 l 105 0 l 56 79 l 155 282 l 485 282 l 400 108 l 515 108 l 638 340 l 254 340 l 210 397 l 375 726 l 345 786 l 650 786 l 682 848 l 1013 848 l 982 786 l 1192 786 l 1074 548 l 744 548 l 808 679 l 682 679 l 565 448 l 973 448 l 996 399 l 791 0 l 608 0 z "},"%":{"ha":1263,"x_min":193,"x_max":1232,"o":"m 373 0 l 764 781 l 878 781 l 1096 781 l 705 0 l 373 0 l 373 0 l 373 0 m 243 385 l 502 385 l 597 574 l 543 656 l 289 656 l 193 465 l 243 385 l 243 385 l 243 385 m 337 482 l 416 482 l 454 558 l 374 558 l 337 482 l 337 482 l 337 482 m 878 65 l 1137 65 l 1232 254 l 1177 337 l 924 337 l 828 146 l 878 65 l 878 65 l 878 65 m 972 163 l 1050 163 l 1088 239 l 1010 239 l 972 163 l 972 163 z "},"&":{"ha":1111,"x_min":27,"x_max":1234,"o":"m 27 79 l 196 410 l 267 458 l 366 458 l 280 628 l 277 628 l 353 779 l 660 779 l 945 779 l 1205 779 l 1234 718 l 1072 408 l 969 351 l 751 351 l 873 107 l 1036 107 l 991 -1 l 927 -1 l 981 -108 l 648 -108 l 594 0 l 78 0 l 27 79 l 27 79 l 27 79 m 697 458 l 767 458 l 880 672 l 628 672 l 608 630 l 611 630 l 697 458 l 697 458 l 697 458 m 456 275 l 372 107 l 541 107 l 456 275 l 456 275 z "},"'":{"ha":520,"x_min":298,"x_max":515,"o":"m 490 781 q 507 773 498 781 q 514 757 515 765 l 460 511 q 455 495 458 503 q 445 488 453 488 l 363 488 q 348 494 355 488 q 340 511 341 501 l 300 757 q 302 773 298 766 q 313 781 307 781 l 490 781 z "},"(":{"ha":515,"x_min":-85,"x_max":969,"o":"m -85 -173 l 496 989 l 522 989 l 609 989 l 828 989 l 969 989 l 918 887 l 777 887 l 298 -71 l 437 -71 l 387 -173 l 9 -173 l 9 -173 l -85 -173 l -85 -173 z "},")":{"ha":547,"x_min":-189,"x_max":865,"o":"m 284 -173 l 258 -173 l 171 -173 l -48 -173 l -189 -173 l -138 -71 l 3 -71 l 482 887 l 343 887 l 393 989 l 770 989 l 770 989 l 865 989 l 284 -173 z "},"*":{"ha":589,"x_min":186,"x_max":567,"o":"m 422 842 l 422 786 l 463 826 q 494 806 480 817 l 527 774 q 531 767 529 770 q 536 761 533 764 l 485 711 l 559 711 q 567 657 567 685 q 566 635 567 646 q 562 613 564 624 l 506 613 l 547 572 q 482 499 525 528 l 422 559 l 422 472 q 400 468 411 469 q 376 467 389 467 q 325 474 351 467 l 325 551 l 271 498 q 207 572 229 527 l 249 613 l 191 613 q 189 630 190 622 q 186 648 187 638 l 186 667 q 194 711 187 688 l 269 711 l 218 762 q 291 827 245 804 l 325 793 l 325 840 q 350 845 337 844 q 376 847 363 847 q 400 846 389 847 q 422 842 411 844 z "},"+":{"ha":939,"x_min":211,"x_max":1011,"o":"m 287 467 l 473 467 l 505 531 l 836 531 l 804 467 l 1011 467 l 935 313 l 724 313 l 689 243 l 359 243 l 394 313 l 211 313 l 287 467 l 287 467 z "},",":{"ha":447,"x_min":-113,"x_max":357,"o":"m 337 41 q 352 33 348 41 q 347 16 357 24 l 56 -252 q 36 -269 47 -261 q 16 -277 26 -277 l -96 -277 q -110 -270 -106 -277 q -106 -252 -113 -263 l 56 16 q 75 34 63 26 q 97 41 87 41 l 337 41 z "},"-":{"ha":793,"x_min":141,"x_max":857,"o":"m 203 416 l 857 416 l 794 291 l 141 291 l 203 416 l 203 416 z "},".":{"ha":435,"x_min":20,"x_max":410,"o":"m 20 0 l 77 114 l 410 114 l 353 0 l 20 0 z "},"/":{"ha":511,"x_min":-39,"x_max":777,"o":"m -39 -88 l 444 876 l 557 876 l 777 876 l 294 -88 l -39 -88 l -39 -88 z "},":":{"ha":460,"x_min":5,"x_max":545,"o":"m 467 340 l 467 340 l 136 340 l 213 495 l 545 495 l 467 340 m 336 80 l 5 80 l 83 235 l 414 235 l 336 80 z "},";":{"ha":533,"x_min":12,"x_max":585,"o":"m 382 89 l 382 89 l 12 8 l 95 177 l 64 237 l 457 237 l 382 89 m 507 340 l 176 340 l 253 496 l 585 496 l 507 340 z "},"<":{"ha":770,"x_min":127,"x_max":732,"o":"m 127 281 l 130 285 l 139 473 l 732 644 l 721 449 l 450 374 l 706 263 l 690 39 l 127 281 l 127 281 z "},"=":{"ha":791,"x_min":80,"x_max":900,"o":"m 142 323 l 795 323 l 734 199 l 80 199 l 142 323 l 142 323 l 142 323 m 247 531 l 900 531 l 838 406 l 184 406 l 247 531 l 247 531 z "},">":{"ha":744,"x_min":210,"x_max":809,"o":"m 797 210 l 210 39 l 221 263 l 489 341 l 229 450 l 241 644 l 809 401 l 795 214 l 797 210 l 797 210 z "},"?":{"ha":897,"x_min":20,"x_max":1055,"o":"m 20 0 l 77 114 l 410 114 l 353 0 l 20 0 l 20 0 m 447 188 l 117 188 l 273 498 l 604 498 l 604 498 l 610 498 l 703 677 l 576 677 l 516 557 l 185 557 l 268 722 l 237 783 l 393 783 l 622 783 l 729 783 l 861 783 l 1025 783 l 1055 722 l 879 373 l 541 373 l 447 188 z "},"@":{"ha":1503,"x_min":18,"x_max":1615,"o":"m 664 104 l 790 104 l 836 195 l 709 195 l 664 104 m 1244 104 l 1477 565 q 1480 594 1486 582 q 1457 606 1474 606 l 519 606 q 484 594 502 606 q 457 565 466 582 l 156 -32 q 153 -61 147 -49 q 176 -73 159 -73 q 660 -73 420 -73 q 1143 -73 901 -73 l 1076 -205 l 170 -205 l 138 -202 l 98 -187 l 61 -159 l 33 -121 l 20 -78 l 18 -38 l 25 -2 l 35 23 l 340 627 l 346 637 l 354 650 l 362 661 l 371 671 l 380 680 l 390 689 l 400 697 l 410 704 l 421 711 l 433 718 l 445 723 l 458 728 l 471 732 l 486 736 l 503 738 l 516 739 l 1463 739 l 1495 735 l 1535 720 l 1573 692 l 1600 654 l 1613 611 l 1615 571 l 1608 536 l 1598 510 l 1339 0 l 340 0 l 311 59 l 431 299 l 484 299 l 888 299 l 956 434 l 829 434 l 789 355 l 459 355 l 522 479 l 582 540 l 1278 540 l 1308 479 l 1120 104 l 1244 104 z "},"A":{"ha":898,"x_min":55,"x_max":1122,"o":"m 1093 781 l 1122 722 l 762 0 l 431 0 l 602 342 l 476 342 l 305 0 l 335 -60 l 275 -60 l 55 160 l 335 722 l 305 781 l 1093 781 l 1093 781 l 1093 781 m 656 449 l 768 674 l 642 674 l 530 449 l 656 449 l 656 449 z "},"B":{"ha":897,"x_min":-27,"x_max":1121,"o":"m 1091 782 l 1121 722 l 1016 507 l 852 397 l 919 407 l 941 361 l 798 74 l 692 1 l -27 0 l 334 722 l 304 782 l 589 782 l 1091 782 l 1091 782 l 1091 782 m 484 108 l 606 351 l 454 300 l 357 108 l 484 108 l 484 108 l 484 108 m 673 486 l 767 675 l 641 675 l 521 435 l 673 486 l 673 486 z "},"C":{"ha":896,"x_min":11,"x_max":1120,"o":"m 1090 781 l 1120 721 l 968 414 l 638 414 l 766 674 l 640 674 l 356 108 l 482 108 l 613 371 l 944 371 l 788 57 l 673 0 l 55 0 l 11 75 l 332 721 l 302 781 l 1090 781 l 1090 781 z "},"D":{"ha":897,"x_min":-28,"x_max":1120,"o":"m 1120 722 l 798 74 l 691 1 l -28 0 l 334 722 l 304 782 l 1090 782 l 1120 722 m 484 108 l 767 675 l 642 675 l 357 108 l 484 108 l 484 108 z "},"E":{"ha":898,"x_min":-26,"x_max":1153,"o":"m 1153 782 l 1035 548 l 705 548 l 768 675 l 642 675 l 556 502 l 1012 502 l 958 394 l 502 394 l 359 108 l 485 108 l 603 342 l 933 342 l 760 0 l -26 0 l 335 722 l 305 782 l 1153 782 z "},"F":{"ha":901,"x_min":53,"x_max":1150,"o":"m 554 502 l 1009 502 l 959 394 l 501 394 l 303 0 l 334 -60 l 273 -60 l 53 160 l 334 721 l 303 781 l 1150 781 l 1045 570 l 715 570 l 766 673 l 640 673 l 554 502 l 554 502 z "},"G":{"ha":899,"x_min":3,"x_max":1120,"o":"m 615 501 l 1016 501 l 651 -220 l 681 -281 l 621 -281 l 401 -60 l 431 0 l 33 0 l 3 60 l 334 721 l 302 781 l 1090 781 l 1120 721 l 1042 553 l 711 553 l 766 673 l 641 673 l 357 108 l 484 108 l 627 393 l 562 393 l 615 501 l 615 501 z "},"H":{"ha":898,"x_min":54,"x_max":1150,"o":"m 460 312 l 304 0 l 334 -60 l 274 -60 l 54 160 l 334 722 l 304 781 l 694 781 l 522 437 l 648 437 l 821 781 l 1150 781 l 761 0 l 429 0 l 587 312 l 460 312 l 460 312 z "},"I":{"ha":442,"x_min":-27,"x_max":696,"o":"m -27 0 l 336 721 l 306 781 l 696 781 l 306 0 l -27 0 z "},"J":{"ha":884,"x_min":4,"x_max":1139,"o":"m 35 0 l 4 62 l 215 481 l 184 541 l 245 541 l 465 321 l 367 126 l 479 126 l 777 721 l 747 781 l 1139 781 l 747 0 l 35 0 l 35 0 z "},"K":{"ha":876,"x_min":51,"x_max":1148,"o":"m 804 0 l 523 0 l 488 371 l 302 0 l 332 -61 l 271 -61 l 51 160 l 332 721 l 302 781 l 692 781 l 545 486 l 841 781 l 1148 781 l 766 401 l 804 0 l 804 0 z "},"L":{"ha":897,"x_min":5,"x_max":869,"o":"m 762 0 l 35 0 l 5 64 l 334 722 l 304 780 l 695 780 l 368 126 l 494 126 l 621 378 l 590 439 l 651 439 l 869 219 l 762 0 l 762 0 z "},"M":{"ha":1249,"x_min":54,"x_max":1473,"o":"m 782 0 l 1048 531 l 669 0 l 477 0 l 539 472 l 304 0 l 333 -60 l 274 -60 l 54 160 l 333 720 l 304 781 l 751 781 l 686 293 l 1034 781 l 1443 781 l 1473 721 l 1112 0 l 782 0 l 782 0 z "},"N":{"ha":962,"x_min":54,"x_max":1215,"o":"m 491 0 l 507 406 l 303 -1 l 333 -60 l 273 -60 l 54 160 l 333 720 l 303 780 l 692 780 l 675 362 l 884 780 l 1215 780 l 825 0 l 491 0 l 491 0 z "},"O":{"ha":898,"x_min":20,"x_max":1122,"o":"m 1093 782 l 1122 721 l 798 74 l 693 0 l 85 0 l 20 94 l 336 721 l 305 782 l 1093 782 l 1093 782 m 485 106 l 768 675 l 642 675 l 359 106 l 485 106 z "},"P":{"ha":911,"x_min":54,"x_max":1119,"o":"m 303 0 l 333 -60 l 274 -60 l 54 160 l 333 720 l 303 781 l 1089 781 l 1119 720 l 909 300 l 850 240 l 761 240 l 424 240 l 424 240 l 303 0 m 613 364 l 769 675 l 642 675 l 486 364 l 613 364 l 613 364 z "},"Q":{"ha":897,"x_min":20,"x_max":1120,"o":"m 1090 781 l 1120 720 l 650 -220 l 680 -281 l 621 -281 l 399 -60 l 429 0 l 85 0 l 20 93 l 335 720 l 303 781 l 589 781 l 1090 781 l 1090 781 l 1090 781 l 1090 781 m 483 106 l 768 674 l 641 674 l 358 106 l 483 106 l 483 106 z "},"R":{"ha":894,"x_min":-26,"x_max":1118,"o":"m 1088 779 l 1118 718 l 1025 518 l 873 444 l 933 438 l 954 392 l 757 0 l 429 0 l 604 349 l 453 298 l 304 0 l -26 0 l 334 718 l 304 779 l 1088 779 l 1088 779 l 1088 779 m 672 484 l 765 672 l 640 672 l 521 433 l 672 484 l 672 484 z "},"S":{"ha":895,"x_min":52,"x_max":1118,"o":"m 304 0 l 302 -5 l 332 -64 l 273 -64 l 52 157 l 123 295 l 453 295 l 358 107 l 482 107 l 597 329 l 207 462 l 332 720 l 302 780 l 1086 780 l 1118 718 l 1025 530 l 696 530 l 766 673 l 640 673 l 553 494 l 886 375 l 916 315 l 758 0 l 304 0 l 304 0 z "},"T":{"ha":994,"x_min":258,"x_max":1242,"o":"m 306 781 l 1242 781 l 1193 675 l 889 675 l 551 -1 l 581 -61 l 521 -61 l 300 160 l 558 675 l 258 675 l 306 781 l 306 781 z "},"U":{"ha":896,"x_min":3,"x_max":1151,"o":"m 34 0 l 3 60 l 334 721 l 304 782 l 694 782 l 355 105 l 483 105 l 820 782 l 1151 782 l 790 60 l 677 0 l 34 0 z "},"V":{"ha":888,"x_min":5,"x_max":1152,"o":"m 326 0 l 172 0 l 35 0 l 5 60 l 335 721 l 305 782 l 696 782 l 357 105 l 372 105 l 823 782 l 1152 782 l 673 60 l 551 0 l 413 0 l 326 0 l 326 0 z "},"W":{"ha":1243,"x_min":3,"x_max":1419,"o":"m 876 191 l 1171 781 l 1141 841 l 1200 841 l 1419 622 l 1135 58 l 1048 0 l 623 0 l 692 286 l 501 0 l 29 0 l 3 60 l 334 718 l 303 779 l 693 779 l 399 193 l 812 774 l 1018 774 l 876 191 z "},"X":{"ha":910,"x_min":0,"x_max":1160,"o":"m 0 0 l 407 384 l 296 782 l 626 782 l 669 630 l 765 721 l 769 782 l 1160 782 l 736 384 l 842 0 l 513 1 l 475 136 l 330 1 l 0 0 l 0 0 z "},"Y":{"ha":879,"x_min":155,"x_max":1131,"o":"m 711 342 l 505 -71 l 534 -132 l 475 -132 l 254 89 l 380 342 l 260 342 l 185 342 l 155 403 l 314 720 l 284 781 l 674 781 l 507 447 l 635 447 l 800 781 l 1131 781 l 941 399 l 865 342 l 711 342 l 711 342 z "},"Z":{"ha":897,"x_min":22,"x_max":1131,"o":"m 68 0 l 22 98 l 209 456 l 659 456 l 777 674 l 651 674 l 575 531 l 245 531 l 342 718 l 280 781 l 1093 781 l 1131 720 l 928 338 l 472 338 l 357 107 l 481 107 l 577 295 l 907 295 l 760 0 l 68 0 z "},"[":{"ha":546,"x_min":-56,"x_max":999,"o":"m -56 -173 l 239 414 l 153 414 l 201 515 l 290 515 l 526 988 l 551 988 l 640 988 l 858 988 l 999 988 l 949 887 l 808 887 l 328 -72 l 467 -72 l 416 -173 l 39 -173 l 39 -173 l -56 -173 l -56 -173 z "},"\\":{"ha":1074,"x_min":220,"x_max":1036,"o":"m 703 -96 l 220 869 l 439 869 l 552 869 l 1036 -96 l 703 -96 z "},"]":{"ha":622,"x_min":-179,"x_max":876,"o":"m 876 989 l 639 516 l 732 516 l 682 415 l 588 415 l 294 -173 l 269 -173 l 180 -173 l -38 -173 l -179 -173 l -129 -71 l 12 -71 l 492 887 l 353 887 l 404 989 l 781 989 l 781 989 l 876 989 l 876 989 z "},"^":{"ha":549,"x_min":142,"x_max":626,"o":"m 470 737 l 626 443 l 447 445 l 376 579 l 297 445 l 142 448 l 317 739 l 468 736 l 470 737 l 470 737 z "},"_":{"ha":731,"x_min":-73,"x_max":627,"o":"m -27 -12 l 627 -12 l 580 -105 l -73 -105 l -27 -12 z "},"`":{"ha":309,"x_min":-490,"x_max":-20,"o":"m -230 855 q -208 848 -220 855 q -189 829 -196 840 l -27 562 q -23 544 -20 551 q -37 536 -26 536 l -149 536 q -169 545 -159 536 q -189 562 -180 553 l -480 829 q -485 847 -490 838 q -470 855 -481 855 l -230 855 z "},"a":{"ha":893,"x_min":0,"x_max":997,"o":"m 398 196 l 398 196 l 353 105 l 479 105 l 525 196 l 398 196 m 577 301 l 644 435 l 518 435 l 478 357 l 148 357 l 210 481 l 270 541 l 967 541 l 997 481 l 755 0 l 30 0 l 0 60 l 120 301 l 577 301 z "},"b":{"ha":895,"x_min":0,"x_max":998,"o":"m 519 437 l 519 437 l 353 105 l 479 105 l 645 437 l 519 437 l 519 437 l 519 437 m 572 541 l 968 541 l 998 481 l 787 60 l 728 0 l 31 0 l 0 60 l 361 781 l 331 841 l 391 841 l 612 621 l 572 541 l 572 541 z "},"c":{"ha":892,"x_min":-1,"x_max":997,"o":"m 351 105 l 477 105 l 561 271 l 892 271 l 786 61 l 726 0 l 29 0 l -1 61 l 209 481 l 270 542 l 967 542 l 997 481 l 922 331 l 591 331 l 644 437 l 517 437 l 351 105 z "},"d":{"ha":895,"x_min":3,"x_max":1070,"o":"m 521 435 l 521 435 l 355 105 l 481 105 l 647 435 l 521 435 l 521 435 l 521 435 m 273 541 l 700 541 l 820 782 l 789 841 l 850 841 l 1070 621 l 760 0 l 33 0 l 3 60 l 212 481 l 273 541 l 273 541 z "},"e":{"ha":895,"x_min":0,"x_max":997,"o":"m 428 253 l 428 253 l 353 105 l 478 105 l 534 213 l 864 213 l 787 60 l 727 0 l 30 0 l 0 60 l 210 481 l 270 541 l 967 541 l 997 481 l 886 252 l 555 252 l 555 253 l 428 253 m 607 357 l 644 435 l 517 435 l 479 357 l 607 357 z "},"f":{"ha":769,"x_min":-71,"x_max":1037,"o":"m 180 -238 l 210 -298 l 150 -298 l -71 -77 l 333 720 l 431 781 l 1037 781 l 980 675 l 644 675 l 545 478 l 890 478 l 838 374 l 492 374 l 180 -238 l 180 -238 z "},"g":{"ha":892,"x_min":-53,"x_max":996,"o":"m 478 104 l 644 436 l 517 436 l 351 104 l 478 104 m 2 -56 l 398 -56 l 426 0 l 29 0 l -1 60 l 210 480 l 269 541 l 966 541 l 996 480 l 701 -103 l 604 -162 l -53 -161 l 2 -56 z "},"h":{"ha":898,"x_min":-24,"x_max":1002,"o":"m 305 0 l -24 0 l 366 781 l 336 841 l 396 841 l 616 621 l 576 541 l 584 541 l 583 541 l 972 541 l 1002 481 l 762 0 l 432 0 l 650 435 l 524 435 l 305 0 l 305 0 z "},"i":{"ha":437,"x_min":-29,"x_max":661,"o":"m 267 591 l 331 718 l 661 718 l 597 591 l 267 591 l 267 591 l 267 591 m -29 0 l 241 541 l 572 541 l 301 0 l -29 0 l -29 0 z "},"j":{"ha":435,"x_min":-333,"x_max":658,"o":"m 264 590 l 328 718 l 658 718 l 595 590 l 264 590 l 264 590 l 264 590 m -333 -144 l -104 -144 l 107 -144 l 157 -144 l 257 -83 l 569 541 l 238 541 l -51 -39 l -286 -39 l -333 -144 l -333 -144 z "},"k":{"ha":895,"x_min":-29,"x_max":956,"o":"m 300 0 l -29 0 l 361 781 l 332 841 l 391 841 l 612 621 l 602 601 l 488 374 l 489 374 l 668 553 l 956 553 l 777 374 l 885 374 l 915 313 l 758 0 l 427 0 l 562 268 l 435 268 l 300 0 l 300 0 z "},"l":{"ha":438,"x_min":-28,"x_max":613,"o":"m -28 0 l 363 781 l 332 841 l 393 841 l 613 621 l 302 0 l -28 0 l -28 0 z "},"m":{"ha":1210,"x_min":-33,"x_max":1314,"o":"m 298 0 l -33 0 l 237 541 l 1284 541 l 1314 481 l 1074 0 l 743 0 l 962 435 l 907 435 l 688 0 l 358 0 l 576 435 l 515 435 l 298 0 z "},"n":{"ha":886,"x_min":-33,"x_max":991,"o":"m 298 0 l -33 0 l 237 541 l 961 541 l 991 481 l 750 0 l 419 0 l 637 435 l 515 435 l 298 0 z "},"o":{"ha":893,"x_min":0,"x_max":997,"o":"m 518 437 l 518 437 l 353 105 l 479 105 l 644 437 l 518 437 m 967 541 l 997 481 l 787 60 l 727 0 l 643 0 l 433 0 l 329 0 l 174 0 l 30 0 l 0 60 l 210 481 l 270 541 l 967 541 z "},"p":{"ha":897,"x_min":-65,"x_max":1001,"o":"m 484 106 l 484 106 l 648 437 l 523 437 l 358 106 l 484 106 l 484 106 l 484 106 m 731 1 l 305 1 l 184 -240 l 216 -300 l 155 -300 l -65 -79 l 244 542 l 971 542 l 1001 481 l 791 61 l 731 1 l 731 1 z "},"q":{"ha":893,"x_min":-1,"x_max":996,"o":"m 477 104 l 477 104 l 644 435 l 517 435 l 351 104 l 477 104 l 477 104 l 477 104 m 427 0 l 29 0 l -1 60 l 209 480 l 269 541 l 356 541 l 564 541 l 669 541 l 825 541 l 966 541 l 996 480 l 646 -219 l 675 -280 l 616 -280 l 396 -60 l 427 0 l 427 0 z "},"r":{"ha":898,"x_min":-32,"x_max":1029,"o":"m 520 440 l 299 0 l -32 0 l 212 486 l 182 545 l 1029 545 l 909 304 l 578 304 l 646 440 l 520 440 l 520 440 z "},"s":{"ha":884,"x_min":9,"x_max":1021,"o":"m 58 0 l 9 79 l 73 210 l 403 210 l 353 108 l 467 108 l 545 253 l 161 253 l 117 309 l 203 485 l 172 544 l 1021 544 l 943 394 l 612 394 l 635 437 l 510 437 l 471 359 l 880 359 l 903 311 l 745 0 l 58 0 z "},"t":{"ha":709,"x_min":0,"x_max":734,"o":"m 111 441 l 170 546 l 245 546 l 363 783 l 332 843 l 393 843 l 613 623 l 575 546 l 734 546 l 676 441 l 523 441 l 355 105 l 654 105 l 597 0 l 302 0 l 32 0 l 0 58 l 193 441 l 111 441 l 111 441 z "},"u":{"ha":894,"x_min":0,"x_max":1027,"o":"m 132 0 l 30 0 l 0 60 l 241 541 l 570 541 l 353 105 l 479 105 l 697 541 l 1027 541 l 757 0 l 742 0 l 439 0 l 327 0 l 132 0 l 132 0 z "},"v":{"ha":863,"x_min":0,"x_max":1028,"o":"m 132 0 l 30 0 l 0 60 l 241 541 l 571 541 l 353 105 l 379 105 l 697 541 l 1028 541 l 684 41 l 610 0 l 328 0 l 132 0 l 132 0 z "},"w":{"ha":1241,"x_min":0,"x_max":1375,"o":"m 30 0 l 0 60 l 241 541 l 571 541 l 353 105 l 386 105 l 420 105 l 423 105 l 642 541 l 971 541 l 753 105 l 827 105 l 1045 541 l 1375 541 l 1105 0 l 1090 0 l 30 0 z "},"x":{"ha":864,"x_min":1,"x_max":946,"o":"m 486 0 l 431 87 l 332 0 l 1 0 l 311 273 l 141 541 l 471 541 l 523 460 l 615 541 l 946 541 l 642 273 l 818 0 l 486 0 l 486 0 z "},"y":{"ha":893,"x_min":-50,"x_max":1026,"o":"m 706 -101 l 609 -159 l -50 -159 l 5 -55 l 399 -55 l 427 0 l 32 0 l 2 61 l 242 541 l 571 541 l 353 106 l 479 106 l 696 541 l 1026 541 l 706 -101 l 706 -101 z "},"z":{"ha":886,"x_min":1,"x_max":1046,"o":"m 1046 544 l 867 217 l 414 217 l 357 106 l 482 106 l 517 174 l 847 174 l 756 0 l 36 0 l 1 59 l 144 323 l 599 323 l 656 436 l 527 436 l 498 379 l 169 379 l 228 492 l 302 544 l 1046 544 z "},"{":{"ha":713,"x_min":164,"x_max":1080,"o":"m 170 -173 q 179 68 164 -53 q 228 303 194 189 q 312 523 261 418 q 429 716 363 628 q 575 873 495 805 q 747 983 655 942 l 861 983 l 1080 983 q 926 837 1002 916 q 780 668 849 758 q 653 480 711 578 q 557 276 595 382 q 503 58 519 170 q 503 -172 488 -55 l 170 -173 z "},"|":{"ha":707,"x_min":303,"x_max":641,"o":"m 303 0 l 303 971 l 641 971 l 641 0 l 303 0 l 303 0 z "},"}":{"ha":800,"x_min":-100,"x_max":815,"o":"m 810 983 q 800 743 815 863 q 752 507 785 622 q 667 288 718 393 q 550 94 616 182 q 404 -63 484 5 q 232 -173 323 -132 l 119 -173 l -100 -173 q 53 -26 -24 -106 q 199 142 130 53 q 326 330 269 232 q 422 534 384 429 q 476 753 460 640 q 477 983 492 865 l 810 983 z "},"~":{"ha":729,"x_min":50,"x_max":711,"o":"m 50 343 l 92 402 l 99 410 l 106 419 l 113 428 l 120 435 l 127 444 l 136 451 l 143 458 l 151 465 l 159 471 l 168 477 l 177 483 l 186 488 l 196 493 l 206 497 l 216 501 l 227 504 l 237 506 l 249 507 l 260 508 l 271 508 l 283 507 l 294 505 l 305 503 l 316 498 l 326 494 l 337 490 l 347 484 l 357 478 l 367 471 l 376 465 l 385 456 l 388 454 l 391 451 l 394 448 l 397 446 l 400 443 l 403 440 l 406 437 l 410 435 l 412 433 l 416 430 l 418 427 l 421 425 l 424 422 l 427 420 l 430 418 l 433 416 l 435 414 l 438 412 l 441 411 l 444 409 l 446 408 l 448 406 l 450 406 l 453 404 l 455 404 l 457 403 l 458 402 l 460 401 l 462 401 l 463 401 l 464 401 l 465 401 l 467 401 l 469 401 l 472 401 l 475 401 l 478 401 l 481 401 l 486 402 l 489 404 l 493 404 l 498 406 l 502 407 l 507 409 l 511 410 l 515 412 l 520 414 l 524 416 l 529 418 l 533 421 l 538 423 l 542 426 l 547 428 l 551 431 l 554 433 l 558 435 l 562 438 l 565 441 l 568 443 l 571 445 l 574 448 l 576 450 l 578 451 l 629 501 l 711 404 l 665 359 l 661 355 l 656 351 l 652 346 l 646 342 l 641 338 l 635 334 l 630 331 l 624 327 l 618 323 l 612 319 l 606 315 l 600 311 l 593 309 l 586 304 l 579 302 l 572 298 l 565 295 l 558 292 l 551 289 l 543 286 l 536 284 l 528 282 l 520 279 l 512 278 l 504 276 l 496 275 l 487 274 l 479 273 l 470 273 l 461 273 l 452 274 l 445 275 l 438 276 l 431 277 l 425 279 l 418 281 l 412 283 l 406 286 l 400 288 l 395 291 l 389 294 l 384 297 l 378 300 l 374 303 l 368 306 l 364 309 l 359 313 l 355 315 l 350 319 l 346 322 l 342 326 l 338 329 l 334 332 l 330 335 l 326 338 l 323 342 l 319 345 l 316 347 l 313 351 l 309 353 l 307 356 l 303 359 l 301 361 l 296 366 l 292 368 l 288 372 l 283 374 l 280 376 l 276 378 l 273 378 l 271 380 l 269 380 l 267 380 l 264 380 l 262 380 l 261 380 l 258 380 l 256 380 l 254 379 l 252 378 l 248 377 l 245 376 l 243 374 l 239 371 l 235 368 l 231 366 l 227 362 l 222 358 l 218 354 l 214 349 l 209 344 l 203 338 l 199 332 l 194 326 l 150 264 l 50 343 l 50 343 z "},"":{"ha":698,"x_min":0,"x_max":0,"o":""},"":{"ha":0,"x_min":0,"x_max":0,"o":""},"":{"ha":0,"x_min":0,"x_max":0,"o":""},"":{"ha":0,"x_min":0,"x_max":0,"o":""},"":{"ha":0,"x_min":0,"x_max":0,"o":""},"":{"ha":1365,"x_min":16,"x_max":1320,"o":"m 347 0 l 347 0 l 16 0 l 93 155 l 425 155 l 347 0 m 794 0 l 794 0 l 463 0 l 541 155 l 872 155 l 794 0 m 1242 0 l 911 0 l 988 155 l 1320 155 l 1242 0 z "},"":{"ha":0,"x_min":0,"x_max":0,"o":""},"":{"ha":0,"x_min":0,"x_max":0,"o":""},"":{"ha":0,"x_min":0,"x_max":0,"o":""},"":{"ha":0,"x_min":0,"x_max":0,"o":""},"":{"ha":0,"x_min":0,"x_max":0,"o":""},"":{"ha":0,"x_min":0,"x_max":0,"o":""},"":{"ha":0,"x_min":0,"x_max":0,"o":""},"":{"ha":0,"x_min":0,"x_max":0,"o":""},"":{"ha":0,"x_min":0,"x_max":0,"o":""},"":{"ha":0,"x_min":0,"x_max":0,"o":""},"":{"ha":1051,"x_min":0,"x_max":0,"o":""},"":{"ha":535,"x_min":0,"x_max":0,"o":""},"":{"ha":549,"x_min":0,"x_max":0,"o":""},"":{"ha":833,"x_min":0,"x_max":0,"o":""},"":{"ha":830,"x_min":0,"x_max":0,"o":""},"":{"ha":476,"x_min":61,"x_max":418,"o":"m 61 178 q 75 248 61 215 q 113 304 89 280 q 170 343 138 329 q 239 357 203 357 q 309 343 276 357 q 366 304 341 329 q 404 248 390 280 q 418 178 418 215 q 404 109 418 142 q 366 52 390 77 q 309 14 341 28 q 239 0 276 0 q 170 14 203 0 q 113 52 138 28 q 75 109 89 77 q 61 178 61 142 z "},"":{"ha":585,"x_min":0,"x_max":0,"o":""},"":{"ha":876,"x_min":0,"x_max":0,"o":""},"":{"ha":0,"x_min":0,"x_max":0,"o":""},"":{"ha":0,"x_min":0,"x_max":0,"o":""},"":{"ha":0,"x_min":0,"x_max":0,"o":""},"":{"ha":0,"x_min":0,"x_max":0,"o":""},"":{"ha":0,"x_min":0,"x_max":0,"o":""},"":{"ha":0,"x_min":0,"x_max":0,"o":""},"":{"ha":0,"x_min":0,"x_max":0,"o":""},"":{"ha":0,"x_min":0,"x_max":0,"o":""}," ":{"ha":627,"x_min":0,"x_max":0,"o":""},"¡":{"ha":709,"x_min":0,"x_max":0,"o":""},"¢":{"ha":701,"x_min":0,"x_max":0,"o":""},"£":{"ha":705,"x_min":0,"x_max":0,"o":""},"¤":{"ha":706,"x_min":0,"x_max":0,"o":""},"¥":{"ha":707,"x_min":0,"x_max":0,"o":""},"¦":{"ha":733,"x_min":0,"x_max":0,"o":""},"§":{"ha":712,"x_min":0,"x_max":0,"o":""},"¨":{"ha":693,"x_min":0,"x_max":0,"o":""},"©":{"ha":711,"x_min":0,"x_max":0,"o":""},"ª":{"ha":709,"x_min":0,"x_max":0,"o":""},"«":{"ha":710,"x_min":0,"x_max":0,"o":""},"¬":{"ha":1058,"x_min":0,"x_max":0,"o":""},"­":{"ha":1052,"x_min":0,"x_max":0,"o":""},"®":{"ha":717,"x_min":0,"x_max":0,"o":""},"¯":{"ha":716,"x_min":0,"x_max":0,"o":""},"°":{"ha":696,"x_min":0,"x_max":0,"o":""},"±":{"ha":783,"x_min":0,"x_max":0,"o":""},"²":{"ha":1234,"x_min":0,"x_max":0,"o":""},"³":{"ha":1076,"x_min":0,"x_max":0,"o":""},"´":{"ha":842,"x_min":0,"x_max":0,"o":""},"µ":{"ha":841,"x_min":0,"x_max":0,"o":""},"¶":{"ha":709,"x_min":0,"x_max":0,"o":""},"·":{"ha":783,"x_min":0,"x_max":0,"o":""},"¸":{"ha":707,"x_min":0,"x_max":0,"o":""},"¹":{"ha":727,"x_min":0,"x_max":0,"o":""},"º":{"ha":707,"x_min":0,"x_max":0,"o":""},"»":{"ha":710,"x_min":0,"x_max":0,"o":""},"¼":{"ha":962,"x_min":0,"x_max":0,"o":""},"½":{"ha":962,"x_min":0,"x_max":0,"o":""},"¾":{"ha":962,"x_min":0,"x_max":0,"o":""},"¿":{"ha":962,"x_min":0,"x_max":0,"o":""},"À":{"ha":713,"x_min":0,"x_max":0,"o":""},"Á":{"ha":713,"x_min":0,"x_max":0,"o":""},"Â":{"ha":711,"x_min":0,"x_max":0,"o":""},"Ã":{"ha":708,"x_min":0,"x_max":0,"o":""},"Ä":{"ha":711,"x_min":0,"x_max":0,"o":""},"Å":{"ha":709,"x_min":0,"x_max":0,"o":""},"Æ":{"ha":713,"x_min":0,"x_max":0,"o":""},"Ç":{"ha":693,"x_min":0,"x_max":0,"o":""},"È":{"ha":708,"x_min":0,"x_max":0,"o":""},"É":{"ha":713,"x_min":0,"x_max":0,"o":""},"Ê":{"ha":707,"x_min":0,"x_max":0,"o":""},"Ë":{"ha":711,"x_min":0,"x_max":0,"o":""},"Ì":{"ha":962,"x_min":0,"x_max":0,"o":""},"Í":{"ha":709,"x_min":0,"x_max":0,"o":""},"Î":{"ha":711,"x_min":0,"x_max":0,"o":""},"Ï":{"ha":715,"x_min":0,"x_max":0,"o":""},"Ð":{"ha":366,"x_min":0,"x_max":0,"o":""},"Ñ":{"ha":0,"x_min":0,"x_max":0,"o":""},"Ò":{"ha":683,"x_min":0,"x_max":0,"o":""},"Ó":{"ha":686,"x_min":0,"x_max":0,"o":""},"Ô":{"ha":0,"x_min":0,"x_max":0,"o":""},"Õ":{"ha":0,"x_min":0,"x_max":0,"o":""},"Ö":{"ha":0,"x_min":0,"x_max":0,"o":""},"×":{"ha":0,"x_min":0,"x_max":0,"o":""},"Ø":{"ha":0,"x_min":0,"x_max":0,"o":""},"Ù":{"ha":0,"x_min":0,"x_max":0,"o":""},"Ú":{"ha":0,"x_min":0,"x_max":0,"o":""},"Û":{"ha":0,"x_min":0,"x_max":0,"o":""},"Ü":{"ha":0,"x_min":0,"x_max":0,"o":""},"Ý":{"ha":0,"x_min":0,"x_max":0,"o":""},"฾":{"ha":0,"x_min":0,"x_max":0,"o":""},"ß":{"ha":995,"x_min":15,"x_max":1163,"o":"m 1133 781 l 1163 722 l 1058 506 l 894 396 l 961 406 l 983 360 l 840 74 l 734 1 l 602 1 l 565 -73 l 233 -73 l 271 0 l 15 0 l 376 722 l 346 781 l 631 781 l 639 781 l 674 852 l 1006 852 l 970 781 l 1133 781 l 1133 781 l 1133 781 m 526 107 l 647 351 l 496 300 l 399 107 l 526 107 l 526 107 l 526 107 m 715 486 l 810 675 l 684 675 l 564 435 l 715 486 l 715 486 z "},"à":{"ha":363,"x_min":0,"x_max":0,"o":""},"á":{"ha":692,"x_min":0,"x_max":0,"o":""},"â":{"ha":366,"x_min":0,"x_max":0,"o":""},"ã":{"ha":368,"x_min":0,"x_max":0,"o":""},"ä":{"ha":366,"x_min":0,"x_max":0,"o":""},"å":{"ha":688,"x_min":0,"x_max":0,"o":""},"æ":{"ha":751,"x_min":0,"x_max":0,"o":""},"ç":{"ha":0,"x_min":0,"x_max":0,"o":""},"è":{"ha":0,"x_min":0,"x_max":0,"o":""},"é":{"ha":0,"x_min":0,"x_max":0,"o":""},"ê":{"ha":0,"x_min":0,"x_max":0,"o":""},"ë":{"ha":0,"x_min":0,"x_max":0,"o":""},"ì":{"ha":0,"x_min":0,"x_max":0,"o":""},"í":{"ha":0,"x_min":0,"x_max":0,"o":""},"î":{"ha":0,"x_min":0,"x_max":0,"o":""},"ï":{"ha":585,"x_min":0,"x_max":0,"o":""},"ð":{"ha":717,"x_min":0,"x_max":0,"o":""},"ñ":{"ha":717,"x_min":0,"x_max":0,"o":""},"ò":{"ha":791,"x_min":0,"x_max":0,"o":""},"ó":{"ha":713,"x_min":0,"x_max":0,"o":""},"ô":{"ha":698,"x_min":0,"x_max":0,"o":""},"õ":{"ha":698,"x_min":0,"x_max":0,"o":""},"ö":{"ha":718,"x_min":0,"x_max":0,"o":""},"÷":{"ha":783,"x_min":0,"x_max":0,"o":""},"ø":{"ha":719,"x_min":0,"x_max":0,"o":""},"ù":{"ha":783,"x_min":0,"x_max":0,"o":""},"ú":{"ha":1061,"x_min":0,"x_max":0,"o":""},"û":{"ha":917,"x_min":0,"x_max":0,"o":""},"ü":{"ha":0,"x_min":0,"x_max":0,"o":""},"ý":{"ha":0,"x_min":0,"x_max":0,"o":""},"þ":{"ha":0,"x_min":0,"x_max":0,"o":""},"ÿ":{"ha":1317,"x_min":0,"x_max":0,"o":""},"◌":{"ha":711,"x_min":0,"x_max":0,"o":""},"Ī":{"ha":879,"x_min":0,"x_max":0,"o":""},"ī":{"ha":879,"x_min":0,"x_max":0,"o":""},"Ĭ":{"ha":1314,"x_min":0,"x_max":0,"o":""},"ĭ":{"ha":725,"x_min":0,"x_max":0,"o":""},"Į":{"ha":876,"x_min":0,"x_max":0,"o":""},"​":{"ha":0,"x_min":0,"x_max":0,"o":""}}}
